<svg xmlns="http://www.w3.org/2000/svg" width="512" height="512" viewBox="0 0 512 512"><defs><radialGradient id="body" cx="36%" cy="25%" r="80%"><stop stop-color="#FFF7D4"/><stop offset="1" stop-color="#EDCE86"/></radialGradient><linearGradient id="leaf" x1="0" y1="0" x2="0.8" y2="1"><stop stop-color="#BDD287"/><stop offset="1" stop-color="#719551"/></linearGradient><linearGradient id="hat" x1="0" y1="0" x2="0.8" y2="1"><stop stop-color="#A9ACDC"/><stop offset="1" stop-color="#777FAB"/></linearGradient><radialGradient id="blush" cx="36%" cy="25%" r="80%"><stop stop-color="#F2BDB0"/><stop offset="1" stop-color="#F7E6D4"/></radialGradient><linearGradient id="petal" x1="0" y1="0" x2="0.8" y2="1"><stop stop-color="#FFF0AC"/><stop offset="1" stop-color="#EDBD58"/></linearGradient></defs><ellipse cx="256" cy="449" rx="111" ry="11" fill="#596C47" opacity=".09"/><ellipse cx="204" cy="423" rx="39" ry="25" fill="url(#body)" stroke="#D6CEB8" stroke-width="1.4"/><ellipse cx="309" cy="423" rx="39" ry="25" fill="url(#body)" stroke="#D6CEB8" stroke-width="1.4"/><path d="M 256 175 C 202 172 159 208 148 264 C 135 312 145 336 161 354 C 152 381 172 422 206 429 C 231 436 280 436 307 430 C 343 423 366 390 352 357 C 372 331 377 309 365 270 C 351 211 310 177 256 175 Z" fill="url(#body)" stroke="#D6CEB8" stroke-width="1.8" stroke-linecap="round" stroke-linejoin="round" /><ellipse cx="255" cy="357" rx="67" ry="55" fill="#FFFDF4" opacity=".43"/><path d="M 257 182 Q 248 151 254 122" fill="none" stroke="#92A65C" stroke-width="8" stroke-linecap="round" stroke-linejoin="round" /><g transform="translate(252 162) rotate(-56) scale(0.53)"><path d="M 0 0 C -45 -3 -61 -38 -45 -69 C -17 -67 8 -39 0 0 Z" fill="url(#leaf)" stroke="#67864D" stroke-width="1.4" stroke-linecap="round" stroke-linejoin="round" /><path d="M -2 -4 Q -13 -33 -40 -60" fill="none" stroke="#EFF7BB" stroke-width="1.5" stroke-linecap="round" stroke-linejoin="round" opacity=".56"/></g><g transform="translate(257 171) rotate(91) scale(0.46)"><path d="M 0 0 C -45 -3 -61 -38 -45 -69 C -17 -67 8 -39 0 0 Z" fill="url(#leaf)" stroke="#67864D" stroke-width="1.4" stroke-linecap="round" stroke-linejoin="round" /><path d="M -2 -4 Q -13 -33 -40 -60" fill="none" stroke="#EFF7BB" stroke-width="1.5" stroke-linecap="round" stroke-linejoin="round" opacity=".56"/></g><g transform="translate(258 111) rotate(0) scale(0.83)"><g transform="translate(0 0) rotate(0.0) scale(1)"><ellipse cx="0" cy="-24" rx="17" ry="27" fill="url(#petal)" stroke="#CA8D89" stroke-opacity=".25" stroke-width="1.5"/></g><g transform="translate(0 0) rotate(72.0) scale(1)"><ellipse cx="0" cy="-24" rx="17" ry="27" fill="url(#petal)" stroke="#CA8D89" stroke-opacity=".25" stroke-width="1.5"/></g><g transform="translate(0 0) rotate(144.0) scale(1)"><ellipse cx="0" cy="-24" rx="17" ry="27" fill="url(#petal)" stroke="#CA8D89" stroke-opacity=".25" stroke-width="1.5"/></g><g transform="translate(0 0) rotate(216.0) scale(1)"><ellipse cx="0" cy="-24" rx="17" ry="27" fill="url(#petal)" stroke="#CA8D89" stroke-opacity=".25" stroke-width="1.5"/></g><g transform="translate(0 0) rotate(288.0) scale(1)"><ellipse cx="0" cy="-24" rx="17" ry="27" fill="url(#petal)" stroke="#CA8D89" stroke-opacity=".25" stroke-width="1.5"/></g><circle cx="0" cy="0" r="12" fill="#ECCB76" /><circle cx="-3" cy="-3" r="3" fill="#FFF2BF" /></g><ellipse cx="218" cy="281" rx="5.6" ry="7.7" fill="#615B53" /><ellipse cx="294" cy="281" rx="5.6" ry="7.7" fill="#615B53" /><circle cx="216.5" cy="278" r="1.6" fill="#FFFDF5" /><circle cx="292.5" cy="278" r="1.6" fill="#FFFDF5" /><ellipse cx="199" cy="300" rx="14" ry="8" fill="#EDB7AC" opacity=".44"/><ellipse cx="313" cy="300" rx="14" ry="8" fill="#EDB7AC" opacity=".44"/><path d="M 247 303 Q 256 312 265 303" fill="none" stroke="#86766A" stroke-width="3" stroke-linecap="round" stroke-linejoin="round" /><ellipse cx="187" cy="365" rx="20" ry="31" fill="url(#body)" transform="rotate(-27 187 365)" stroke="#D6CEB8" stroke-width="1.5"/><ellipse cx="323" cy="364" rx="20" ry="31" fill="url(#body)" transform="rotate(27 323 364)" stroke="#D6CEB8" stroke-width="1.5"/></svg>